<svg width="30" height="30" viewBox="0 0 30 30" fill="none" xmlns="http://www.w3.org/2000/svg">
<path d="M24.414 4.875H5.586C4.15997 4.875 3 6.03497 3 7.461V22.5234C3 23.9495 4.15997 25.1094 5.586 25.1094H24.414C25.84 25.1094 27 23.9495 27 22.5234V7.461C27 6.03497 25.84 4.875 24.414 4.875V4.875ZM25.5938 22.5234C25.5938 23.174 25.0646 23.7032 24.414 23.7032H5.586C4.93542 23.7032 4.40625 23.174 4.40625 22.5234V7.461C4.40625 6.81042 4.93542 6.28125 5.586 6.28125H24.414C25.0646 6.28125 25.5938 6.81042 25.5938 7.461V22.5234Z" fill="#04F18C"/>
<path d="M22.5314 8.64075H7.46875C7.08057 8.64075 6.76562 8.95551 6.76562 9.34387C6.76562 9.73206 7.08057 10.047 7.46875 10.047H22.5314C22.9196 10.047 23.2345 9.73206 23.2345 9.34387C23.2345 8.95551 22.9196 8.64075 22.5314 8.64075Z" fill="#04F18C"/>
<path d="M8.22168 12.4063C7.8335 12.4063 7.51855 12.7211 7.51855 13.1094V20.6407C7.51855 21.0289 7.8335 21.3439 8.22168 21.3439C8.61005 21.3439 8.9248 21.0289 8.9248 20.6407V13.1094C8.9248 12.7211 8.61005 12.4063 8.22168 12.4063Z" fill="#04F18C"/>
<path d="M15 12.4063C14.6116 12.4063 14.2969 12.7211 14.2969 13.1094V20.6407C14.2969 21.0289 14.6116 21.3439 15 21.3439C15.3884 21.3439 15.7031 21.0289 15.7031 20.6407V13.1094C15.7031 12.7211 15.3884 12.4063 15 12.4063Z" fill="#04F18C"/>
<path d="M21.7783 12.4063C21.39 12.4063 21.0752 12.7211 21.0752 13.1094V20.6407C21.0752 21.0289 21.39 21.3439 21.7783 21.3439C22.1665 21.3439 22.4814 21.0289 22.4814 20.6407V13.1094C22.4814 12.7211 22.1665 12.4063 21.7783 12.4063Z" fill="#04F18C"/>
<path d="M11.9875 12.4063H11.2344C10.846 12.4063 10.5312 12.7211 10.5312 13.1094V20.6407C10.5312 21.0289 10.846 21.3439 11.2344 21.3439H11.9875C12.3757 21.3439 12.6906 21.0289 12.6906 20.6407V13.1094C12.6906 12.7211 12.3759 12.4063 11.9875 12.4063Z" fill="#04F18C"/>
<path d="M18.7658 12.4063H18.0127C17.6245 12.4063 17.3096 12.7211 17.3096 13.1094V20.6407C17.3096 21.0289 17.6245 21.3439 18.0127 21.3439H18.7658C19.1542 21.3439 19.4689 21.0289 19.4689 20.6407V13.1094C19.4689 12.7211 19.1542 12.4063 18.7658 12.4063Z" fill="#04F18C"/>
</svg>
