<svg width="80" height="76" viewBox="0 0 80 76" fill="none" xmlns="http://www.w3.org/2000/svg">
<g clip-path="url(#clip0)">
<path d="M75.2383 46.0149L69.6388 35.7547C69.3719 35.2659 68.8337 34.958 68.2456 34.958H40.0003H11.7546C11.1665 34.958 10.6283 35.2659 10.3614 35.7547L4.76193 46.0149C4.51524 46.4671 4.53807 47.0063 4.82227 47.4388C5.10648 47.8714 5.61126 48.1349 6.15497 48.1349H8.10625V73.8775C8.10625 74.6828 8.80613 75.3359 9.66953 75.3359H70.3258C71.1892 75.3359 71.8891 74.6828 71.8891 73.8775V48.1351H73.8449C74.3888 48.1351 74.8936 47.8714 75.1776 47.439C75.4621 47.0063 75.485 46.4671 75.2383 46.0149ZM67.2873 37.8747L71.2951 45.2182H46.5581L42.5503 37.8747H67.2873ZM12.7131 37.8747H37.4501L33.4423 45.2182H8.7053L12.7131 37.8747ZM68.7629 72.4191H41.5635V64.3364C41.5635 63.5311 40.8637 62.8781 40.0003 62.8781C39.1369 62.8781 38.437 63.5311 38.437 64.3364V72.4191H11.2331V48.1351H34.4008C34.9889 48.1351 35.5271 47.8273 35.7939 47.3383L38.437 42.4953V51.2405C38.437 52.0458 39.1369 52.6989 40.0003 52.6989C40.8637 52.6989 41.5635 52.0458 41.5635 51.2405V42.4953L44.2066 47.3383C44.4734 47.8273 45.0117 48.1351 45.5998 48.1351H68.7629V72.4191Z" fill="#04F18C"/>
<path d="M26.6324 64.4324H17.7308C16.8674 64.4324 16.1675 65.0855 16.1675 65.8908C16.1675 66.6961 16.8674 67.3492 17.7308 67.3492H26.6324C27.4958 67.3492 28.1957 66.6961 28.1957 65.8908C28.1957 65.0855 27.4958 64.4324 26.6324 64.4324Z" fill="#04F18C"/>
<path d="M40.0003 30.6695C48.846 30.6695 56.0427 23.9475 56.0427 15.6851C56.0426 7.42497 48.846 0.704834 40.0003 0.704834C31.1522 0.704834 23.9536 7.42497 23.9536 15.6851C23.9536 23.9475 31.152 30.6695 40.0003 30.6695ZM40.0003 3.62156C47.1222 3.62156 52.9162 9.03326 52.9162 15.6851C52.9162 22.3394 47.1222 27.7528 40.0003 27.7528C32.8762 27.7528 27.0802 22.3394 27.0802 15.6851C27.0802 9.03326 32.876 3.62156 40.0003 3.62156Z" fill="#04F18C"/>
<path d="M32.9914 17.8724L37.1524 21.1627C37.4358 21.3869 37.7944 21.5087 38.1632 21.5087C38.2076 21.5087 38.2521 21.5069 38.2967 21.5034C38.7116 21.4702 39.095 21.2841 39.3622 20.9861L47.1927 12.2555C47.7467 11.6379 47.659 10.7181 46.9969 10.2011C46.3347 9.68454 45.3489 9.76606 44.7949 10.3838L37.974 17.9888L35.0133 15.6473C34.3547 15.1266 33.3681 15.2021 32.81 15.8168C32.2515 16.4314 32.3328 17.3514 32.9914 17.8724Z" fill="#04F18C"/>
<path d="M9.28935 17.1435H16.053C16.9164 17.1435 17.6163 16.4905 17.6163 15.6852C17.6163 14.8799 16.9164 14.2268 16.053 14.2268H9.28935C8.42595 14.2268 7.72607 14.8799 7.72607 15.6852C7.72607 16.4905 8.42595 17.1435 9.28935 17.1435Z" fill="#04F18C"/>
<path d="M8.55985 6.99575L15.3235 10.3236C15.5562 10.4381 15.8055 10.4923 16.0516 10.4923C16.6128 10.4923 17.1555 10.2095 17.4357 9.71399C17.8384 9.00158 17.5459 8.11942 16.7822 7.74374L10.0184 4.4159C9.25504 4.04023 8.3091 4.31294 7.9064 5.0255C7.5037 5.73791 7.79619 6.62007 8.55985 6.99575Z" fill="#04F18C"/>
<path d="M7.90598 26.3439C8.18597 26.8398 8.72874 27.123 9.29042 27.123C9.53601 27.123 9.78536 27.0689 10.0177 26.9547L16.7813 23.6311C17.5452 23.2557 17.8383 22.3737 17.4359 21.6611C17.0335 20.9484 16.088 20.6751 15.3242 21.0504L8.56053 24.374C7.79671 24.7494 7.50375 25.6314 7.90598 26.3439Z" fill="#04F18C"/>
<path d="M63.9432 17.1435H70.7069C71.5703 17.1435 72.2701 16.4905 72.2701 15.6852C72.2701 14.8799 71.5703 14.2268 70.7069 14.2268H63.9432C63.0798 14.2268 62.3799 14.8799 62.3799 15.6852C62.3799 16.4905 63.0798 17.1435 63.9432 17.1435Z" fill="#04F18C"/>
<path d="M63.9442 10.4924C64.1901 10.4924 64.4396 10.4382 64.6722 10.3237L71.4359 6.99585C72.1995 6.62017 72.492 5.73801 72.0893 5.0256C71.6865 4.31319 70.741 4.04004 69.9773 4.416L63.2137 7.74384C62.45 8.11952 62.1575 9.00168 62.5602 9.71409C62.8404 10.2096 63.3828 10.4924 63.9442 10.4924Z" fill="#04F18C"/>
<path d="M63.2144 23.6309L69.9781 26.9545C70.2105 27.0687 70.4597 27.1228 70.7053 27.1228C71.267 27.1228 71.8098 26.8398 72.0898 26.3438C72.4922 25.6312 72.199 24.7492 71.4352 24.3738L64.6715 21.0502C63.9076 20.6748 62.9622 20.9481 62.5599 21.661C62.1575 22.3735 62.4506 23.2556 63.2144 23.6309Z" fill="#04F18C"/>
<path d="M40.0003 56.3302C39.1369 56.3302 38.437 56.9833 38.437 57.7886V57.7969C38.437 58.6022 39.1369 59.2512 40.0003 59.2512C40.8637 59.2512 41.5636 58.594 41.5636 57.7887C41.5636 56.9834 40.8637 56.3302 40.0003 56.3302Z" fill="#04F18C"/>
</g>
<defs>
<clipPath id="clip0">
<rect width="80" height="74.631" fill="white" transform="translate(0 0.704834)"/>
</clipPath>
</defs>
</svg>
