<svg width="30" height="30" viewBox="0 0 30 30" fill="none" xmlns="http://www.w3.org/2000/svg">
<g clip-path="url(#clip0)">
<path d="M6.54746 20.9967C6.29937 20.7888 5.92982 20.8215 5.72205 21.0696L4.25691 22.8189L3.7274 22.3702C3.48048 22.161 3.11082 22.1916 2.90158 22.4385C2.6924 22.6854 2.72298 23.0552 2.9699 23.2644L3.949 24.0939C4.05523 24.1839 4.18959 24.2327 4.32775 24.2327C4.34439 24.2327 4.36103 24.232 4.37773 24.2306C4.53312 24.2173 4.67685 24.1426 4.77699 24.023L6.62052 21.8221C6.82818 21.574 6.79548 21.2045 6.54746 20.9967Z" fill="#04F18C"/>
<path d="M28.7591 11.9596H27.917C27.2116 11.927 26.6444 11.3262 25.9881 10.6311C25.5495 10.1666 25.0799 9.66926 24.5143 9.30064V4.29182C24.5143 3.40957 23.7965 2.6918 22.9143 2.6918H3.80256C2.92031 2.6918 2.2026 3.40957 2.2026 4.29182V8.35635C2.2026 8.67996 2.46492 8.94228 2.78854 8.94228C3.11215 8.94228 3.37447 8.67996 3.37447 8.35635V4.29182C3.37447 4.05978 3.57053 3.86367 3.80256 3.86367H10.2865V9.04787C10.2865 9.26086 10.4021 9.45709 10.5884 9.56039C10.6768 9.60943 10.7747 9.63381 10.8724 9.63381C10.9804 9.63381 11.0881 9.60398 11.183 9.54475L13.3591 8.18461L15.5337 9.54469C15.7144 9.6576 15.942 9.66369 16.1284 9.56045C16.3148 9.45721 16.4304 9.26098 16.4304 9.04793V3.86367H22.9144C23.1464 3.86367 23.3425 4.05973 23.3425 4.29182V8.80389C23.1519 8.76398 22.9518 8.74002 22.7402 8.73627C22.7367 8.73621 22.7333 8.73621 22.7299 8.73621H21.2454H20.0925H19.4285C19.4254 8.73621 19.4224 8.73621 19.4194 8.73627C18.713 8.74723 18.3501 9.06744 18.17 9.3341C17.8904 9.74801 17.8645 10.3086 18.0968 10.9119C18.1509 11.0528 18.2168 11.186 18.2927 11.3112H13.8496C12.895 11.3112 12.1184 12.0879 12.1184 13.0425C12.1184 13.2388 12.1512 13.4276 12.2115 13.6036H12.056C11.1013 13.6036 10.3247 14.3803 10.3247 15.3349C10.3247 16.2896 11.1013 17.0663 12.056 17.0663H12.2111C12.151 17.2418 12.1183 17.43 12.1183 17.6257C12.1183 18.5505 12.8457 19.3083 13.7578 19.3563C13.6972 19.5325 13.6642 19.7215 13.6642 19.9181C13.6642 20.8728 14.4409 21.6495 15.3955 21.6495H22.6549C22.9049 21.6495 23.1325 21.6189 23.3423 21.5665V23.4025C23.3423 23.6354 23.1462 23.8322 22.9142 23.8322H9.34213C9.45709 23.4229 9.5199 22.9919 9.5199 22.5463C9.5199 19.9215 7.38457 17.7861 4.75986 17.7861C4.27805 17.7861 3.81293 17.8587 3.3743 17.9924V13.6243C3.3743 13.3007 3.11197 13.0384 2.78836 13.0384C2.46475 13.0384 2.20242 13.3007 2.20242 13.6243V18.5347C0.879551 19.3812 0 20.8625 0 22.5463C0 25.1721 2.13533 27.3082 4.76004 27.3082C6.48639 27.3082 8.00086 26.3839 8.83547 25.0041H22.9144C23.7966 25.0041 24.5143 24.2856 24.5143 23.4025V20.99C24.6437 20.8976 24.7674 20.8027 24.8873 20.7103C25.4048 20.3115 25.8516 19.9672 26.5632 19.9672H28.7592C29.4434 19.9672 30.0001 19.4112 30.0001 18.7279V13.2005C30 12.5162 29.4434 11.9596 28.7591 11.9596ZM15.2585 7.99031L13.67 6.99674C13.48 6.87797 13.2388 6.87791 13.0487 6.99668L11.4584 7.99066V3.86367H15.2585V7.99031ZM4.76004 26.1363C2.7815 26.1363 1.17188 24.5259 1.17188 22.5463C1.17188 20.5678 2.7815 18.9581 4.76004 18.9581C6.73857 18.9581 8.3482 20.5678 8.3482 22.5463C8.3482 24.5259 6.73857 26.1363 4.76004 26.1363ZM28.8281 18.7279C28.8281 18.7638 28.7959 18.7953 28.7591 18.7953H26.5631C25.4524 18.7953 24.7721 19.3195 24.172 19.782C23.6677 20.1707 23.2693 20.4776 22.655 20.4776H15.3956C15.0872 20.4776 14.8362 20.2267 14.8362 19.9182C14.8362 19.6097 15.0872 19.3587 15.3956 19.3587H17.3406C17.6642 19.3587 17.9265 19.0964 17.9265 18.7728C17.9265 18.4492 17.6642 18.1869 17.3406 18.1869H13.8497C13.5412 18.1869 13.2903 17.9352 13.2903 17.6258C13.2903 17.3173 13.5413 17.0663 13.8497 17.0663H17.3406C17.6642 17.0663 17.9265 16.804 17.9265 16.4804C17.9265 16.1568 17.6642 15.8944 17.3406 15.8944H12.056C11.7476 15.8944 11.4966 15.6435 11.4966 15.335C11.4966 15.0265 11.7476 14.7755 12.056 14.7755H17.3406C17.6642 14.7755 17.9265 14.5132 17.9265 14.1896C17.9265 13.866 17.6642 13.6037 17.3406 13.6037H13.8497C13.5412 13.6037 13.2903 13.3519 13.2903 13.0426C13.2903 12.7341 13.5413 12.4832 13.8497 12.4832H20.3876H21.6593H22.5088C22.8324 12.4832 23.0947 12.2208 23.0947 11.8972C23.0947 11.5736 22.8324 11.3113 22.5088 11.3113H21.6593H20.3876C19.8517 11.3113 19.3819 10.9897 19.1907 10.4915C19.0792 10.2019 19.1096 10.0368 19.1412 9.98994C19.173 9.94295 19.2874 9.9109 19.4334 9.90814H21.2454H22.7245C23.7125 9.92789 24.4041 10.6603 25.1361 11.4356C25.902 12.2467 26.6938 13.0854 27.8823 13.131C27.8897 13.1313 27.8972 13.1314 27.9047 13.1314H28.7592C28.7966 13.1314 28.8282 13.1631 28.8282 13.2005V18.7279H28.8281Z" fill="#04F18C"/>
<path d="M2.78857 11.5771C3.11219 11.5771 3.37451 11.3132 3.37451 10.9896C3.37451 10.6659 3.11219 10.4036 2.78857 10.4036C2.46496 10.4036 2.20264 10.6659 2.20264 10.9896V10.9929C2.20264 11.3164 2.46496 11.5771 2.78857 11.5771Z" fill="#04F18C"/>
</g>
<defs>
<clipPath id="clip0">
<rect width="30" height="30" fill="white"/>
</clipPath>
</defs>
</svg>
