<svg width="38" height="38" viewBox="0 0 38 38" fill="none" xmlns="http://www.w3.org/2000/svg">
<rect width="38" height="38" rx="3" fill="#04F18C"/>
<path d="M19.0032 11.3109C17.4822 11.3109 15.9954 11.7619 14.7307 12.6071C13.4661 13.4522 12.4804 14.6534 11.8983 16.0588C11.3163 17.4642 11.164 19.0107 11.4607 20.5027C11.7574 21.9947 12.4899 23.3651 13.5654 24.4408C14.6409 25.5164 16.0111 26.2489 17.5029 26.5457C18.9947 26.8425 20.5409 26.6902 21.9461 26.108C23.3514 25.5259 24.5524 24.5401 25.3974 23.2753C26.2424 22.0104 26.6935 20.5234 26.6935 19.0022C26.6951 17.9917 26.4973 16.9908 26.1114 16.0569C25.7255 15.123 25.1591 14.2745 24.4447 13.56C23.7302 12.8455 22.8818 12.279 21.9481 11.893C21.0143 11.5071 20.0136 11.3092 19.0032 11.3109ZM19.0032 24.0015C18.0142 24.0021 17.0473 23.7094 16.2247 23.1603C15.4021 22.6112 14.7608 21.8305 14.3819 20.9169C14.003 20.0032 13.9036 18.9977 14.0961 18.0275C14.2887 17.0573 14.7646 16.1661 15.4637 15.4664C16.1628 14.7668 17.0537 14.2903 18.0236 14.0971C18.9935 13.9039 19.999 14.0027 20.9127 14.3811C21.8265 14.7595 22.6075 15.4004 23.157 16.2228C23.7065 17.0451 23.9998 18.012 23.9998 19.0012C23.9974 20.3266 23.4699 21.597 22.5328 22.5343C21.5957 23.4715 20.3254 23.9991 19.0001 24.0015H19.0032ZM28.8006 10.996C28.8006 11.3508 28.6954 11.6975 28.4984 11.9925C28.3013 12.2875 28.0212 12.5174 27.6935 12.6531C27.3658 12.7889 27.0052 12.8244 26.6574 12.7552C26.3095 12.686 25.9899 12.5151 25.7391 12.2643C25.4883 12.0135 25.3175 11.6939 25.2483 11.3459C25.1791 10.998 25.2146 10.6374 25.3504 10.3096C25.4861 9.9819 25.716 9.70177 26.0109 9.50469C26.3058 9.3076 26.6525 9.20241 27.0072 9.20241C27.2429 9.20187 27.4763 9.24789 27.6942 9.33784C27.912 9.42779 28.1099 9.55988 28.2765 9.72654C28.4432 9.8932 28.5753 10.0911 28.6652 10.309C28.7551 10.5269 28.8011 10.7603 28.8006 10.996ZM33.8936 12.8163C33.944 10.4833 33.074 8.22421 31.4717 6.52788C29.7726 4.93227 27.5175 4.06378 25.1872 4.10768C22.7109 3.96411 15.2842 3.96411 12.812 4.10768C10.4815 4.06225 8.22576 4.93095 6.52754 6.52788C4.93016 8.22468 4.06141 10.4801 4.10766 12.8102C3.96411 15.2868 3.96411 22.7094 4.10766 25.186C4.0575 27.5177 4.92675 29.7755 6.52754 31.4714C8.22675 33.0671 10.4815 33.9365 12.812 33.8946C15.2883 34.0351 22.7109 34.0351 25.1872 33.8946C27.519 33.944 29.7765 33.0735 31.4717 31.4714C33.0682 29.7726 33.9377 27.517 33.8946 25.186C34.0351 22.7094 34.0351 15.2929 33.8946 12.8163H33.8936ZM30.6955 27.8431C30.441 28.4885 30.0565 29.0748 29.566 29.5654C29.0754 30.056 28.4893 30.4405 27.8439 30.695C25.8701 31.4785 21.1852 31.297 19.0032 31.297C16.8212 31.297 12.1332 31.4714 10.1625 30.695C9.51711 30.4405 8.93096 30.056 8.44042 29.5654C7.94988 29.0748 7.56542 28.4885 7.31092 27.8431C6.52754 25.869 6.70903 21.1834 6.70903 19.0012C6.70903 16.8189 6.53471 12.1302 7.31092 10.1592C7.56485 9.51425 7.94852 8.92833 8.43815 8.43775C8.92778 7.94717 9.51293 7.5624 10.1573 7.30727C12.1363 6.52788 16.8222 6.70529 19.0032 6.70529C21.1842 6.70529 25.8732 6.53096 27.8439 7.30727C28.4893 7.56181 29.0754 7.94632 29.566 8.43693C30.0565 8.92754 30.441 9.51376 30.6955 10.1592C31.4789 12.1333 31.2974 16.8189 31.2974 19.0012C31.2974 21.1834 31.4778 25.8762 30.6955 27.8431Z" fill="#E7ECED"/>
</svg>
