<svg width="30" height="30" viewBox="0 0 30 30" fill="none" xmlns="http://www.w3.org/2000/svg">
<path d="M19.1719 19.05C21.8535 14.8421 21.5164 15.3671 21.5936 15.2574C22.5699 13.8803 23.0859 12.2596 23.0859 10.5703C23.0859 6.09042 19.4506 2.39999 14.9648 2.39999C10.4937 2.39999 6.84375 6.08313 6.84375 10.5703C6.84375 12.2585 7.37059 13.9217 8.37888 15.3173L10.7577 19.05C8.21434 19.4409 3.89062 20.6056 3.89062 23.1703C3.89062 24.1052 4.50084 25.4376 7.4079 26.4758C9.43778 27.2007 12.1215 27.6 14.9648 27.6C20.2817 27.6 26.0391 26.1002 26.0391 23.1703C26.0391 20.6052 21.7204 19.4416 19.1719 19.05ZM9.61226 14.5051C9.60413 14.4924 9.59567 14.48 9.58681 14.4678C8.74778 13.3135 8.32031 11.9455 8.32031 10.5703C8.32031 6.87801 11.2934 3.87656 14.9648 3.87656C18.6286 3.87656 21.6094 6.87934 21.6094 10.5703C21.6094 11.9477 21.19 13.2693 20.3963 14.3932C20.3252 14.487 20.6963 13.9105 14.9648 22.904L9.61226 14.5051ZM14.9648 26.1234C9.15733 26.1234 5.36719 24.4164 5.36719 23.1703C5.36719 22.3328 7.31468 20.9557 11.6302 20.4189L14.3422 24.6745C14.4778 24.8873 14.7125 25.016 14.9648 25.016C15.217 25.016 15.4519 24.8872 15.5874 24.6745L18.2994 20.4189C22.615 20.9557 24.5625 22.3328 24.5625 23.1703C24.5625 24.4058 20.8065 26.1234 14.9648 26.1234Z" fill="#04F18C"/>
<path d="M14.9647 7.7789C12.9603 7.7789 11.3296 9.40963 11.3296 11.4141C11.3296 13.4185 12.9603 15.0492 14.9647 15.0492C16.9692 15.0492 18.5999 13.4185 18.5999 11.4141C18.5999 9.40963 16.9692 7.7789 14.9647 7.7789ZM14.9647 13.5951C13.7621 13.5951 12.7837 12.6167 12.7837 11.4141C12.7837 10.2114 13.7621 9.23296 14.9647 9.23296C16.1674 9.23296 17.1458 10.2114 17.1458 11.4141C17.1458 12.6167 16.1674 13.5951 14.9647 13.5951Z" fill="#04F18C"/>
</svg>
