<svg width="194" height="21" viewBox="0 0 194 21" fill="none" xmlns="http://www.w3.org/2000/svg">
<path d="M158.421 6.13123C159.682 6.13123 160.85 6.92084 160.85 8.42742C160.85 9.93396 159.682 10.7236 158.421 10.7236C157.169 10.7236 155.991 9.93396 155.991 8.42742C155.991 6.92084 157.169 6.13123 158.421 6.13123ZM158.421 7.02068C157.58 7.02068 157 7.57436 157 8.42748C157 9.28059 157.58 9.83422 158.421 9.83422C159.252 9.83422 159.832 9.28059 159.832 8.42748C159.832 7.57436 159.252 7.02068 158.421 7.02068Z" fill="#0CEA8C"/>
<path d="M164.27 6.13123C165.401 6.13123 166.12 6.87542 166.12 7.91009V10.6056H165.12V8.03716C165.12 7.32925 164.672 6.99347 164.074 6.99347C163.504 6.99347 163.074 7.36559 162.822 7.71952V10.6056H161.822V6.24922H162.709V6.84826C163.037 6.46706 163.588 6.13123 164.27 6.13123Z" fill="#0CEA8C"/>
<path d="M168.334 3.98035V10.6057H167.334V3.98035H168.334Z" fill="#0CEA8C"/>
<path d="M170.129 5.41433C169.802 5.41433 169.512 5.23278 169.512 4.83349C169.512 4.45224 169.802 4.26172 170.129 4.26172C170.456 4.26172 170.736 4.45229 170.736 4.83349C170.736 5.23283 170.456 5.41433 170.129 5.41433ZM169.624 10.6057V6.2493H170.624V10.6057H169.624Z" fill="#0CEA8C"/>
<path d="M174.343 6.13123C175.473 6.13123 176.193 6.87542 176.193 7.91009V10.6056H175.193V8.03716C175.193 7.32925 174.744 6.99347 174.146 6.99347C173.576 6.99347 173.147 7.36559 172.894 7.71952V10.6056H171.895V6.24922H172.782V6.84826C173.109 6.46706 173.661 6.13123 174.343 6.13123Z" fill="#0CEA8C"/>
<path d="M179.379 6.13123C181.164 6.13123 181.78 7.52895 181.491 8.79048H178.118C178.23 9.57096 179.015 9.89772 179.837 9.89772C180.379 9.89772 180.874 9.7706 181.257 9.58916V10.4241C180.846 10.6147 180.276 10.7236 179.65 10.7236C178.276 10.7236 177.108 9.96128 177.108 8.42748C177.108 6.84826 178.342 6.13123 179.379 6.13123ZM179.426 6.93903C178.753 6.93903 178.146 7.32925 178.108 8.06442H180.594C180.65 7.68323 180.407 6.93903 179.426 6.93903Z" fill="#0CEA8C"/>
<path d="M158.888 14.5289C160.233 14.5289 161.112 15.5727 161.112 16.8251C161.112 18.0775 160.233 19.1213 158.888 19.1213C158.103 19.1213 157.58 18.7855 157.271 18.4406V21H156.271V14.647H157.159V15.3276C157.514 14.9101 158.047 14.5289 158.888 14.5289ZM158.701 15.382C158.009 15.382 157.486 15.8177 157.271 16.2897V17.3515C157.486 17.8325 158.009 18.2682 158.701 18.2682C159.514 18.2682 160.093 17.6782 160.093 16.8251C160.093 15.972 159.514 15.382 158.701 15.382Z" fill="#0CEA8C"/>
<path d="M163.102 12.3781V19.0034H162.102V12.3781H163.102Z" fill="#0CEA8C"/>
<path d="M168.521 18.3136C168.624 18.3136 168.727 18.2863 168.82 18.2591V18.958C168.634 19.0306 168.409 19.0669 168.185 19.0669C167.774 19.0669 167.447 18.9126 167.288 18.5587C166.849 18.9035 166.297 19.1213 165.597 19.1213C164.784 19.1213 164.027 18.6857 164.027 17.7872C164.027 16.6709 165.092 16.326 166.026 16.326C166.41 16.326 166.839 16.3804 167.194 16.4531V16.2988C167.194 15.7542 166.783 15.3731 166.017 15.3731C165.354 15.3731 164.802 15.5364 164.401 15.7089V14.8194C164.756 14.7014 165.4 14.5289 166.12 14.5289C167.391 14.5289 168.194 15.1188 168.194 16.4349V17.9959C168.194 18.241 168.344 18.3136 168.521 18.3136ZM165.055 17.7237C165.055 18.1502 165.447 18.3681 165.896 18.3681C166.372 18.3681 166.839 18.1956 167.194 17.8507V17.1156C166.923 17.0612 166.54 17.0067 166.223 17.0067C165.653 17.0066 165.055 17.1791 165.055 17.7237Z" fill="#0CEA8C"/>
<path d="M170.783 13.095V14.647H172.409V15.5001H170.783V17.4967C170.783 18.0685 171.054 18.2591 171.633 18.2591C171.96 18.2591 172.259 18.1956 172.54 18.0867V18.9216C172.203 19.0397 171.773 19.1123 171.334 19.1123C170.465 19.1123 169.792 18.6948 169.792 17.6783V15.5001H168.989V14.647H169.792V13.331L170.783 13.095Z" fill="#0CEA8C"/>
<path d="M173.745 19.0034V15.5002H172.932V14.647H173.745V14.166C173.745 12.9045 174.595 12.5323 175.417 12.5323C175.828 12.5323 176.221 12.6141 176.529 12.723V13.5761C176.305 13.4672 175.978 13.3855 175.66 13.3855C175.174 13.3855 174.744 13.5216 174.744 14.2023V14.6471H176.277V15.5002H174.744V19.0035H173.745V19.0034Z" fill="#0CEA8C"/>
<path d="M179.052 14.5289C180.314 14.5289 181.482 15.3185 181.482 16.8251C181.482 18.3317 180.314 19.1213 179.052 19.1213C177.8 19.1213 176.623 18.3317 176.623 16.8251C176.623 15.3185 177.8 14.5289 179.052 14.5289ZM179.052 15.4184C178.211 15.4184 177.632 15.9721 177.632 16.8252C177.632 17.6783 178.211 18.2319 179.052 18.2319C179.884 18.2319 180.463 17.6783 180.463 16.8252C180.463 15.9721 179.884 15.4184 179.052 15.4184Z" fill="#0CEA8C"/>
<path d="M185.228 14.5563V15.5092C184.425 15.4003 183.724 15.7452 183.453 16.3623V19.0034H182.453V14.647H183.341V15.364C183.687 14.8285 184.415 14.4836 185.228 14.5563Z" fill="#0CEA8C"/>
<path d="M185.985 19.0034V14.647H186.873V15.1916C187.115 14.9284 187.639 14.5291 188.368 14.5291C189.04 14.5291 189.508 14.8013 189.769 15.2279C190.162 14.8467 190.685 14.5291 191.339 14.5291C192.526 14.5291 193.04 15.3822 193.04 16.2807V19.0035H192.04V16.3079C192.04 15.7452 191.694 15.3913 191.152 15.3913C190.657 15.3913 190.274 15.7089 190.04 15.9812C190.05 16.0811 190.059 16.1809 190.059 16.2807V19.0035H189.059V16.3079C189.059 15.7452 188.713 15.3913 188.171 15.3913C187.629 15.3913 187.218 15.7725 186.985 16.0629V19.0035H185.985V19.0034Z" fill="#0CEA8C"/>
<path d="M43.7231 2.37086L37.1272 9.06549H40.2792V13.3692C40.2792 16.9503 42.329 19.3243 46.1329 19.3243V16.0256C44.4314 16.0256 43.7231 15.045 43.7231 13.2388V9.06549H46.8751V6.11147H43.7231V2.37086H43.7231ZM65.4 11.7216L65.3999 19.0104H68.8439L68.844 11.8519C68.844 10.0458 69.5522 9.06518 71.2538 9.06518V5.76641C67.4499 5.76641 65.4 8.14044 65.4 11.7216ZM29.1904 5.7681C25.2747 5.7681 22.1004 8.79635 22.1004 12.5319C22.1004 16.2673 25.2747 19.2955 29.1904 19.2955C32.2643 19.2955 34.3274 18.0462 35.5682 16.4945L33.3482 14.6226C32.3095 15.7205 30.9857 16.3762 29.2472 16.3762C27.3665 16.3762 26.0036 15.0278 25.5695 13.6761H36.1766C36.2307 13.482 36.2804 12.8826 36.2804 12.5319C36.2804 8.79635 33.1061 5.7681 29.1904 5.7681ZM25.678 11.0642C26.2427 9.48845 27.6888 8.6297 29.1899 8.6297C31.027 8.6297 32.4152 9.89781 32.7289 11.0642H25.678ZM73.844 19.0104H77.288V6.26841H73.844V19.0104ZM10.5971 9.64719V12.6108H16.4178C15.5062 14.7829 13.5347 16.0952 11.2021 16.0927C9.61781 16.0927 8.14048 15.4911 7.04228 14.3988C5.94988 13.3123 5.34827 11.8593 5.34827 10.3073C5.34827 8.75327 5.94994 7.29427 7.0425 6.19917C8.14272 5.09638 9.61994 4.48907 11.2021 4.48907C13.2604 4.48907 15.0511 5.49731 16.1227 7.25628H19.7962C18.5418 3.75469 15.2253 1.29264 11.202 1.29264C6.07622 1.29269 1.9209 5.32871 1.9209 10.3074C1.9209 15.286 6.07622 19.322 11.2021 19.322C16.328 19.322 20.2893 15.286 20.2893 10.3074C20.2893 10.0016 20.2754 9.64719 20.2754 9.64719H10.5971ZM122.373 15.3338C121.238 15.3338 120.319 16.2271 120.319 17.329C120.319 18.4309 121.238 19.3243 122.373 19.3243C123.507 19.3243 124.427 18.4309 124.427 17.329C124.427 16.2271 123.507 15.3338 122.373 15.3338ZM126.846 11.549L126.846 18.8379H130.29L130.29 11.6794C130.29 9.8733 130.998 8.89264 132.7 8.89264V5.59387C128.896 5.59387 126.846 7.9679 126.846 11.549ZM75.5659 0.913086C74.4314 0.913086 73.5117 1.80642 73.5117 2.90836C73.5117 4.01036 74.4314 4.90363 75.5659 4.90363C76.7005 4.90363 77.6202 4.0103 77.6202 2.90836C77.6202 1.80642 76.7005 0.913086 75.5659 0.913086ZM144.177 5.93894V13.1942C144.177 14.6543 142.959 15.8378 141.456 15.8378C139.952 15.8378 138.734 14.6542 138.734 13.1942V5.93894H135.29L135.29 13.1943C135.29 16.5017 138.05 19.1829 141.456 19.1829C144.861 19.1829 147.621 16.5017 147.621 13.1943L147.621 5.93894H144.177ZM119.008 15.2849C119.008 12.1914 115.983 11.5088 114.336 11.1285C112.618 10.7317 112.393 10.0499 112.393 9.57243C112.393 9.01069 112.96 8.47707 113.919 8.47707C115.519 8.47707 115.701 9.86954 115.701 9.86954H118.899C118.54 7.11765 116.204 5.76635 113.796 5.76635C111.554 5.76635 108.992 6.99409 108.992 9.63419C108.992 11.6522 110.436 12.8509 112.069 13.3696C113.634 13.8668 115.582 13.8504 115.582 15.2936C115.582 16.0839 115.042 16.5502 114.082 16.5502C112.483 16.5502 112.3 15.0393 112.3 15.0393H109.101C109.46 17.9123 111.797 19.3231 114.205 19.3231C116.436 19.3231 118.984 18.0535 119.008 15.3246H119.009C119.009 15.318 119.009 15.3116 119.008 15.3051C119.009 15.2983 119.009 15.2917 119.009 15.2849H119.008ZM106.438 6.11147H102.994C102.994 8.47357 102.482 10.2724 100.395 10.416H99.0683V1.63176H95.6243V19.0104H99.0683V13.3513H100.457L103.616 19.0104H107.54L103.806 12.5609C105.681 11.349 106.438 9.1932 106.438 6.11147ZM86.4497 5.76641C83.0444 5.76641 80.284 8.44762 80.284 11.7551V19.0104H83.7279V11.7551C83.7279 10.2951 84.9465 9.11155 86.4497 9.11155C87.9529 9.11155 89.1714 10.2951 89.1715 11.7551V19.0104H92.6154V11.7551C92.6154 8.44762 89.8549 5.76641 86.4497 5.76641ZM53.7962 1.60428H49.5079V19.0104H53.7962C59.4687 19.0104 63.0774 15.8391 63.0774 10.3073C63.0774 4.77567 59.4687 1.60428 53.7962 1.60428ZM53.7416 15.9407H52.9519V4.67407H53.7416C57.6852 4.67407 59.5954 7.46017 59.5954 10.3073C59.5954 13.1545 57.6852 15.9407 53.7416 15.9407Z" fill="#5F5F6E"/>
</svg>
