<svg width="24" height="24" viewBox="0 0 24 24" fill="none" xmlns="http://www.w3.org/2000/svg">
<path d="M20.9914 5.09662H3.00843C1.94893 5.09662 1.09082 5.96006 1.09082 7.01423V18.5199C1.09082 19.5804 1.95524 20.4375 3.00843 20.4375H20.9914C22.042 20.4375 22.909 19.584 22.909 18.5199V7.01423C22.909 5.96193 22.0543 5.09662 20.9914 5.09662ZM20.7228 6.37503C20.331 6.76473 13.5887 13.4716 13.3559 13.7032C12.9937 14.0654 12.5121 14.2648 11.9999 14.2648C11.4877 14.2648 11.0062 14.0653 10.6428 13.702C10.4862 13.5462 3.81822 6.91341 3.27698 6.37503H20.7228ZM2.36923 18.2597V7.27524L7.89358 12.7705L2.36923 18.2597ZM3.27779 19.1591L8.79997 13.6721L9.73998 14.6071C10.3436 15.2108 11.1462 15.5432 11.9999 15.5432C12.8536 15.5432 13.6562 15.2108 14.2586 14.6083L15.1999 13.6721L20.722 19.1591H3.27779ZM21.6306 18.2597L16.1062 12.7705L21.6306 7.27524V18.2597Z" fill="#5F5F6E"/>
</svg>
