<svg width="24" height="24" viewBox="0 0 24 24" fill="none" xmlns="http://www.w3.org/2000/svg">
<path d="M6.00706 15.3632L6.00738 15.3636C7.96949 17.7002 10.3323 19.5408 13.0293 20.8431L13.0309 20.8439C14.0525 21.3262 15.4411 21.9098 16.9959 22.01L16.9959 22.0101L17.0001 22.0103L17.0125 22.0108C17.1014 22.0147 17.1918 22.0186 17.2865 22.0186C18.3557 22.0186 19.2259 21.6479 19.9306 20.887C19.9342 20.8834 19.94 20.8773 19.9462 20.8701C19.9505 20.865 19.9574 20.8568 19.9649 20.8458C20.1761 20.5933 20.4146 20.3628 20.6739 20.1123C20.6923 20.0945 20.7109 20.0765 20.7295 20.0585C20.9223 19.8746 21.1205 19.6813 21.311 19.4833C21.7757 19.0007 22.0196 18.4399 22.0184 17.8705C22.0173 17.3005 21.7707 16.7459 21.2998 16.2768L18.8465 13.8328C18.3983 13.3694 17.8506 13.1138 17.2661 13.1138C16.6813 13.1138 16.1302 13.3695 15.6706 13.8274L14.315 15.1779C14.2196 15.127 14.1251 15.08 14.0372 15.0362L14.0349 15.035C13.8713 14.9535 13.7286 14.8803 13.6036 14.801L13.6034 14.8009C12.2932 13.9721 11.1002 12.8892 9.95602 11.4918C9.4204 10.8162 9.05369 10.248 8.7924 9.68247C9.14082 9.36233 9.46882 9.03142 9.78377 8.71028L9.78443 8.70959C9.90562 8.58484 10.0311 8.45987 10.1579 8.33353C10.628 7.86514 10.8948 7.30792 10.8948 6.72675C10.8948 6.14643 10.6328 5.58892 10.1575 5.11963C10.1574 5.11953 10.1573 5.11943 10.1572 5.11933L8.94076 3.90745C8.80272 3.76993 8.67226 3.63614 8.53708 3.49751L8.52627 3.48642C8.25704 3.21008 7.97282 2.92275 7.69159 2.66306C7.23904 2.22185 6.69698 1.98141 6.11593 1.98141C5.53776 1.98141 4.99185 2.22279 4.52392 2.66718L4.52388 2.66713L4.52048 2.67052L2.99295 4.19227C2.4042 4.7788 2.06876 5.49439 1.99939 6.31935L1.99932 6.3202C1.91871 7.33033 2.10666 8.3939 2.57893 9.66099C3.30308 11.619 4.39437 13.4329 6.00706 15.3632ZM6.70843 3.67343L6.70827 3.67359L6.71527 3.68004C6.94878 3.89531 7.17014 4.11953 7.40705 4.35951C7.44325 4.39618 7.47981 4.43321 7.51683 4.47064C7.58669 4.54228 7.65749 4.61383 7.72819 4.68528L7.72945 4.68655C7.80008 4.75792 7.87064 4.82923 7.94113 4.90146L7.94112 4.90148L7.94312 4.90347L9.16024 6.11599C9.3924 6.34727 9.48519 6.55556 9.48519 6.73489C9.48519 6.91422 9.3924 7.12251 9.16024 7.35379C9.09636 7.41743 9.03257 7.482 8.96945 7.5459L8.96919 7.54616C8.90578 7.61034 8.84304 7.67385 8.7804 7.73626L8.77964 7.73702C8.75121 7.76564 8.72296 7.79412 8.69485 7.82244C8.34581 8.17419 8.01928 8.50326 7.662 8.8184L7.66176 8.81812L7.65313 8.82672L7.63271 8.84706L7.77416 8.98904L7.63271 8.84706C7.43463 9.04439 7.34029 9.24944 7.31539 9.45124C7.29113 9.64789 7.33532 9.82273 7.37989 9.95592L7.37989 9.95593C7.38403 9.96831 7.38814 9.97844 7.39009 9.98328C7.39223 9.98861 7.3922 9.98866 7.39214 9.98848L7.39446 9.9954L7.39727 10.0021C7.72059 10.776 8.16851 11.508 8.85915 12.3732L8.85915 12.3732L8.86034 12.3747C10.0972 13.8944 11.4033 15.0772 12.845 15.9895C13.0009 16.0905 13.1666 16.1739 13.3153 16.2488C13.3447 16.2636 13.3733 16.278 13.4012 16.2922L13.4028 16.293C13.5664 16.3745 13.7091 16.4477 13.8341 16.527L13.8428 16.5326L13.8521 16.5372C13.8546 16.5384 13.8572 16.5398 13.8648 16.5441L13.8657 16.5447C13.8723 16.5484 13.8832 16.5546 13.8959 16.561C14.0555 16.6428 14.217 16.6843 14.3825 16.6843C14.796 16.6843 15.0593 16.4222 15.1326 16.3492L16.6601 14.8274C16.8727 14.6156 17.0821 14.5237 17.2661 14.5237C17.4939 14.5237 17.6975 14.6667 17.8424 14.8221L17.8423 14.8222L17.8476 14.8276L20.3104 17.2769C20.5301 17.4959 20.6174 17.7014 20.6159 17.8896C20.6144 18.0795 20.5223 18.2943 20.2953 18.5298L20.2933 18.5319C20.1257 18.7107 19.9493 18.8825 19.758 19.065L19.757 19.066C19.7408 19.0816 19.7246 19.0973 19.7084 19.113C19.4396 19.373 19.1535 19.6496 18.8926 19.9601C18.4637 20.4191 17.9593 20.6331 17.2906 20.6331C17.228 20.6331 17.1602 20.6294 17.0905 20.6253C15.7913 20.5424 14.5748 20.0362 13.6439 19.5948C11.1298 18.3826 8.9226 16.6632 7.09058 14.4795C5.57869 12.6664 4.56664 10.9851 3.89813 9.18772L3.89788 9.18706C3.48372 8.08548 3.33334 7.2172 3.39536 6.43862C3.44033 5.94433 3.62831 5.537 3.98651 5.18015L5.50459 3.66781C5.71394 3.46689 5.92749 3.37911 6.11593 3.37911C6.29799 3.37911 6.50265 3.46483 6.70843 3.67343Z" fill="#5F5F6E" stroke="#5F5F6E" stroke-width="0.400826"/>
</svg>
