<svg width="90" height="90" viewBox="0 0 90 90" fill="none" xmlns="http://www.w3.org/2000/svg">
<path d="M83.6996 40.6692L81.369 31.3467C82.0062 31.2113 82.4843 30.646 82.4843 29.9687V28.4656C82.4843 25.2021 79.8291 22.5471 76.5657 22.5471H65.95V19.4466C65.95 17.8407 64.6436 16.5343 63.0376 16.5343H8.92476C7.31883 16.5343 6.01242 17.8407 6.01242 19.4466V45C6.01242 45.7782 6.6433 46.4092 7.42166 46.4092C8.19984 46.4092 8.8309 45.7783 8.8309 45V19.4466C8.8309 19.3948 8.87291 19.3528 8.92476 19.3528H63.0374C63.0893 19.3528 63.1313 19.3948 63.1313 19.4466V45.0003C63.1313 45.7785 63.7622 46.4096 64.5405 46.4096C65.3187 46.4096 65.9498 45.7787 65.9498 45.0003V43.4028H82.5732C82.5746 43.4028 82.5757 43.4032 82.5769 43.4032C82.5783 43.4032 82.5796 43.403 82.5808 43.403C84.6264 43.4044 86.3633 44.747 86.9599 46.5971H82.578C81.7998 46.5971 81.1687 47.228 81.1687 48.0064V51.0126C81.1687 53.4473 83.1494 55.428 85.5842 55.428H87.1813V61.6283H83.4966C82.2862 58.1333 78.9637 55.6157 75.0623 55.6157C71.1608 55.6157 67.8382 58.1333 66.6279 61.6283H65.9494V51.0124C65.9494 50.2342 65.3186 49.6032 64.5402 49.6032C63.762 49.6032 63.131 50.234 63.131 51.0124V61.628H33.8936C32.6832 58.1329 29.3607 55.6154 25.4593 55.6154C21.5578 55.6154 18.2352 58.1329 17.0249 61.628H8.92476C8.87291 61.628 8.8309 61.586 8.8309 61.5341V58.4339H14.9374C15.7155 58.4339 16.3466 57.803 16.3466 57.0246C16.3466 56.2463 15.7157 55.6154 14.9374 55.6154H1.40924C0.631055 55.6154 0 56.2463 0 57.0246C0 57.803 0.630879 58.4339 1.40924 58.4339H6.0126V61.5341C6.0126 63.1401 7.319 64.4465 8.92494 64.4465H16.537C16.5366 64.4778 16.5345 64.5089 16.5345 64.5403C16.5345 69.4615 20.5383 73.4651 25.4593 73.4651C30.3803 73.4651 34.384 69.4615 34.384 64.5403C34.384 64.5087 34.3819 64.4778 34.3816 64.4465H66.14C66.1396 64.4778 66.1375 64.5089 66.1375 64.5403C66.1375 69.4615 70.1413 73.4651 75.0623 73.4651C79.9833 73.4651 83.987 69.4615 83.987 64.5403C83.987 64.5087 83.9849 64.4778 83.9846 64.4465H88.5906C89.3688 64.4465 89.9998 63.8156 89.9998 63.0372V48.006C90 44.2949 87.2618 41.2115 83.6996 40.6692ZM65.95 25.3654H76.5657C78.2752 25.3654 79.666 26.7562 79.666 28.4656V28.5595H65.95V25.3654ZM65.95 40.5845V31.3778H78.4717L80.7734 40.5845H65.95ZM25.4593 70.6472C22.0922 70.6472 19.3528 67.908 19.3528 64.5407C19.3528 61.1734 22.0922 58.4342 25.4593 58.4342C28.8264 58.4342 31.5657 61.1734 31.5657 64.5407C31.5657 67.908 28.8264 70.6472 25.4593 70.6472ZM75.0626 70.6472C71.6955 70.6472 68.9562 67.908 68.9562 64.5407C68.9562 61.1734 71.6955 58.4342 75.0626 58.4342C78.4297 58.4342 81.1691 61.1734 81.1691 64.5407C81.1691 67.908 78.4297 70.6472 75.0626 70.6472ZM87.1817 52.6095H85.5845C84.7039 52.6095 83.9874 51.8931 83.9874 51.0124V49.4152H87.1815V52.6095H87.1817Z" fill="#04F18C"/>
<path d="M25.4592 61.6284C23.8533 61.6284 22.5469 62.9348 22.5469 64.5407C22.5469 66.1466 23.8533 67.4531 25.4592 67.4531C27.0652 67.4531 28.3716 66.1466 28.3716 64.5407C28.3716 62.9348 27.0652 61.6284 25.4592 61.6284Z" fill="#04F18C"/>
<path d="M75.0627 61.6284C73.4568 61.6284 72.1504 62.9348 72.1504 64.5407C72.1504 66.1466 73.4568 67.4531 75.0627 67.4531C76.6687 67.4531 77.9751 66.1466 77.9751 64.5407C77.9751 62.9348 76.6687 61.6284 75.0627 61.6284Z" fill="#04F18C"/>
<path d="M58.5282 55.6158H37.4844C36.7062 55.6158 36.0752 56.2467 36.0752 57.0251C36.0752 57.8034 36.7061 58.4343 37.4844 58.4343H58.5282C59.3064 58.4343 59.9375 57.8034 59.9375 57.0251C59.9375 56.2467 59.3066 55.6158 58.5282 55.6158Z" fill="#04F18C"/>
<path d="M22.4532 49.6034H4.41559C3.6374 49.6034 3.00635 50.2343 3.00635 51.0126C3.00635 51.791 3.63723 52.4219 4.41559 52.4219H22.4532C23.2314 52.4219 23.8624 51.791 23.8624 51.0126C23.8624 50.2343 23.2314 49.6034 22.4532 49.6034Z" fill="#04F18C"/>
<path d="M49.0027 30.4752C48.4525 29.9251 47.56 29.9251 47.0098 30.4754L34.478 43.007L27.9588 36.4878C27.4085 35.9375 26.5162 35.9375 25.966 36.4878C25.4156 37.0382 25.4156 37.9303 25.966 38.4807L33.4817 45.9964C33.7568 46.2716 34.1175 46.4091 34.478 46.4091C34.8386 46.4091 35.1994 46.2716 35.4744 45.9964L49.0025 32.4683C49.5529 31.9177 49.5529 31.0256 49.0027 30.4752Z" fill="#04F18C"/>
</svg>
