<svg width="38" height="38" viewBox="0 0 38 38" fill="none" xmlns="http://www.w3.org/2000/svg">
<rect width="38" height="38" rx="3" fill="#04F18C"/>
<path d="M31.9011 11.6826C30.216 11.6826 28.6612 11.1247 27.4126 10.1835C25.9806 9.10452 24.9518 7.5218 24.5884 5.69757C24.4985 5.24685 24.45 4.78172 24.4454 4.30505H19.6316V17.451L19.6258 24.6517C19.6258 26.5767 18.3715 28.209 16.6327 28.7831C16.1281 28.9497 15.5831 29.0286 15.0156 28.9975C14.2912 28.9577 13.6124 28.7393 13.0225 28.3866C11.767 27.6361 10.9157 26.2747 10.8927 24.7174C10.8563 22.2833 12.8252 20.2989 15.259 20.2989C15.7394 20.2989 16.2007 20.3773 16.6327 20.5196V16.9265V15.6348C16.1771 15.5674 15.7134 15.5323 15.2445 15.5323C12.5807 15.5323 10.0893 16.6389 8.30843 18.6326C6.96238 20.1392 6.15499 22.0614 6.03042 24.077C5.86721 26.7249 6.83666 29.2419 8.71674 31.099C8.99299 31.3716 9.28307 31.6246 9.58642 31.8581C11.1983 33.0978 13.169 33.7699 15.2445 33.7699C15.7134 33.7699 16.1771 33.7353 16.6327 33.6679C18.5716 33.3808 20.3606 32.4938 21.7723 31.099C23.5071 29.3854 24.4656 27.1105 24.476 24.6891L24.4512 13.9363C25.2787 14.5743 26.1836 15.1023 27.1548 15.5121C28.6652 16.149 30.2667 16.4717 31.915 16.4712V12.9778V11.6815C31.9161 11.6826 31.9023 11.6826 31.9011 11.6826Z" fill="#E7ECED"/>
</svg>
