<svg width="30" height="30" viewBox="0 0 30 30" fill="none" xmlns="http://www.w3.org/2000/svg">
<path d="M20.4543 8.84837C20.4628 12.2319 17.7168 14.9916 14.3333 15C10.9497 15.0084 8.19006 12.2625 8.18166 8.87891C8.17325 5.49538 10.9193 2.7357 14.3028 2.72728C17.6863 2.71888 20.446 5.46483 20.4543 8.84837ZM18.2317 8.85396C18.2263 6.69584 16.4664 4.94465 14.3083 4.95001C12.1502 4.95538 10.399 6.71535 10.4043 8.87339C10.4098 11.0315 12.1697 12.7827 14.3277 12.7773C16.4859 12.772 18.237 11.0121 18.2317 8.85396Z" fill="#04F18C" stroke="white" stroke-width="0.2"/>
<path d="M5.36549 25.0061L5.34437 25.1224L5.48335 25.1221L23.143 25.0849L23.282 25.0847L23.2603 24.9685C22.5729 21.3042 18.8103 18.4991 14.2939 18.5086C9.77732 18.518 6.03128 21.3391 5.36549 25.0061ZM2.72709 26.2004C2.71121 20.7899 7.89734 16.3772 14.2876 16.3637C20.6779 16.3503 25.8898 20.7412 25.9058 26.1517L25.9089 27.224L2.73023 27.2727L2.72709 26.2004Z" fill="#04F18C" stroke="white" stroke-width="0.2"/>
</svg>
