<svg width="38" height="38" viewBox="0 0 38 38" fill="none" xmlns="http://www.w3.org/2000/svg">
<rect width="38" height="38" rx="3" fill="#04F18C"/>
<path d="M34.1395 26.0385C34.1025 25.9586 34.0679 25.8923 34.0358 25.8392C33.5043 24.882 32.4888 23.7073 30.9898 22.3145L30.9581 22.2826L30.9422 22.2669L30.9262 22.2509H30.9101C30.2298 21.6024 29.799 21.1663 29.6185 20.943C29.2884 20.5177 29.2145 20.0872 29.3949 19.651C29.5224 19.3215 30.0012 18.6255 30.8302 17.5622C31.2663 16.9986 31.6116 16.547 31.8667 16.2067C33.7061 13.7613 34.5036 12.1986 34.2589 11.5181L34.1639 11.3591C34.1001 11.2634 33.9353 11.1758 33.6698 11.0959C33.4037 11.0162 33.0636 11.003 32.6488 11.0561L28.0561 11.0879C27.9817 11.0615 27.8754 11.0639 27.737 11.0959C27.5988 11.1278 27.5296 11.1439 27.5296 11.1439L27.4497 11.1838L27.3862 11.2318C27.3331 11.2635 27.2746 11.3193 27.2107 11.3991C27.1472 11.4786 27.0941 11.5719 27.0516 11.6781C26.5516 12.9646 25.9831 14.1607 25.3451 15.2663C24.9517 15.9256 24.5904 16.4969 24.2604 16.9807C23.9309 17.4643 23.6545 17.8206 23.4314 18.049C23.208 18.2776 23.0063 18.4608 22.8252 18.5992C22.6444 18.7376 22.5064 18.796 22.4108 18.7747C22.315 18.7533 22.2248 18.732 22.1394 18.7108C21.9907 18.6151 21.871 18.4849 21.7808 18.3201C21.6902 18.1553 21.6292 17.9479 21.5973 17.6981C21.5656 17.4481 21.5468 17.233 21.5415 17.0522C21.5365 16.8716 21.5388 16.6162 21.5496 16.2866C21.5606 15.9569 21.5656 15.7338 21.5656 15.6168C21.5656 15.2128 21.5735 14.7742 21.5893 14.3011C21.6054 13.828 21.6184 13.4532 21.6293 13.177C21.6401 12.9006 21.6451 12.6081 21.6451 12.2998C21.6451 11.9914 21.6264 11.7496 21.5893 11.5741C21.5527 11.3989 21.4964 11.2287 21.4223 11.0638C21.3477 10.899 21.2386 10.7715 21.0953 10.681C20.9519 10.5907 20.7734 10.519 20.5611 10.4657C19.9976 10.3381 19.28 10.2692 18.408 10.2584C16.4306 10.2372 15.1601 10.3649 14.5966 10.6413C14.3733 10.7581 14.1713 10.9177 13.9906 11.1196C13.7992 11.3536 13.7725 11.4813 13.9107 11.5023C14.5487 11.5978 15.0004 11.8264 15.2662 12.1879L15.362 12.3794C15.4365 12.5176 15.5109 12.7623 15.5853 13.1131C15.6597 13.4638 15.7077 13.8519 15.7288 14.2769C15.7819 15.0532 15.7819 15.7177 15.7288 16.2704C15.6756 16.8234 15.6253 17.2539 15.5773 17.5622C15.5293 17.8706 15.4576 18.1204 15.362 18.3117C15.2662 18.5031 15.2024 18.62 15.1705 18.6625C15.1386 18.7049 15.112 18.7317 15.0909 18.7422C14.9527 18.7952 14.809 18.8221 14.6602 18.8221C14.5113 18.8221 14.3306 18.7476 14.118 18.5987C13.9055 18.4498 13.6849 18.2452 13.4563 17.9847C13.2277 17.7242 12.9699 17.36 12.6827 16.8923C12.3958 16.4245 12.098 15.8717 11.7897 15.2338L11.5346 14.7712C11.3751 14.4736 11.1573 14.0403 10.8809 13.4716C10.6043 12.9027 10.3598 12.3524 10.1472 11.8208C10.0623 11.5975 9.93464 11.4276 9.76456 11.3106L9.68474 11.2626C9.63168 11.2202 9.54649 11.1751 9.42964 11.1271C9.31262 11.0791 9.19052 11.0447 9.06283 11.0235L4.6932 11.0552C4.24668 11.0552 3.94372 11.1564 3.78419 11.3584L3.72034 11.454C3.68845 11.5072 3.67236 11.5922 3.67236 11.7093C3.67236 11.8262 3.70426 11.9698 3.7681 12.1397C4.40599 13.6389 5.09967 15.0848 5.84916 16.4775C6.59865 17.8703 7.24994 18.9922 7.80264 19.8422C8.35546 20.6928 8.91894 21.4957 9.4931 22.2503C10.0672 23.0052 10.4473 23.489 10.6332 23.7015C10.8194 23.9144 10.9657 24.0736 11.0719 24.1799L11.4707 24.5626C11.7259 24.8178 12.1006 25.1235 12.5949 25.4795C13.0894 25.8359 13.6369 26.1866 14.2376 26.5324C14.8384 26.8777 15.5373 27.1594 16.3348 27.3773C17.1321 27.5955 17.9082 27.683 18.6631 27.6408H20.4971C20.8691 27.6086 21.1509 27.4917 21.3424 27.2898L21.4059 27.2099C21.4485 27.1464 21.4885 27.0478 21.5253 26.9152C21.5626 26.7823 21.5812 26.6359 21.5812 26.4766C21.5703 26.0196 21.6051 25.6076 21.6846 25.2409C21.7641 24.8742 21.8547 24.5978 21.956 24.4116C22.0573 24.2256 22.1716 24.0687 22.2988 23.9414C22.4263 23.8139 22.5171 23.7366 22.5704 23.7101C22.6233 23.6833 22.6656 23.6651 22.6975 23.6543C22.9526 23.5692 23.2529 23.6516 23.5988 23.9016C23.9444 24.1515 24.2685 24.46 24.5717 24.8266C24.8747 25.1936 25.2388 25.6053 25.664 26.0624C26.0895 26.5197 26.4615 26.8595 26.7803 27.0831L27.0991 27.2745C27.3121 27.4022 27.5885 27.5192 27.9288 27.6255C28.2684 27.7317 28.566 27.7583 28.8216 27.7052L32.904 27.6415C33.3078 27.6415 33.622 27.5746 33.8448 27.442C34.0682 27.3091 34.2008 27.1627 34.2436 27.0034C34.2863 26.844 34.2886 26.6632 34.2517 26.461C34.2139 26.2593 34.1766 26.1182 34.1395 26.0385Z" fill="#E7ECED"/>
</svg>
