<svg width="30" height="30" viewBox="0 0 30 30" fill="none" xmlns="http://www.w3.org/2000/svg">
<path d="M25.2785 21.3314C24.8284 20.9966 24.1923 21.0901 23.8575 21.5401C23.6733 21.7876 23.4763 22.0304 23.2718 22.2617C22.9003 22.6819 22.9398 23.3238 23.36 23.6953C23.5533 23.8662 23.7932 23.95 24.0323 23.95C24.3132 23.95 24.5929 23.8341 24.7936 23.6071C25.0358 23.3332 25.2691 23.0456 25.4872 22.7525C25.822 22.3025 25.7286 21.6662 25.2785 21.3314Z" fill="#04F18C"/>
<path d="M26.9772 16.5684C26.4294 16.4491 25.8881 16.7967 25.7688 17.3448C25.7031 17.6463 25.6238 17.9483 25.5328 18.2426C25.3672 18.7786 25.6675 19.3472 26.2034 19.5128C26.3032 19.5436 26.4042 19.5583 26.5035 19.5583C26.9372 19.5583 27.3388 19.2783 27.4735 18.8422C27.5815 18.4929 27.6757 18.1345 27.7536 17.7768C27.8728 17.2288 27.5252 16.6878 26.9772 16.5684Z" fill="#04F18C"/>
<path d="M20.39 24.5841C20.1204 24.7346 19.8412 24.8753 19.5603 25.0022C19.0491 25.2331 18.8218 25.8346 19.0527 26.3458C19.2223 26.7214 19.5919 26.9437 19.9789 26.9437C20.1186 26.9437 20.2606 26.9147 20.3963 26.8534C20.7296 26.7029 21.0606 26.5361 21.3803 26.3576C21.8701 26.0842 22.0454 25.4655 21.7719 24.9758C21.4985 24.4861 20.8798 24.3107 20.39 24.5841Z" fill="#04F18C"/>
<path d="M13.9846 6.875V14.5793L10.2603 18.3035C9.86374 18.7002 9.86374 19.3432 10.2603 19.7398C10.4587 19.9382 10.7185 20.0373 10.9785 20.0373C11.2384 20.0373 11.4984 19.9381 11.6967 19.7398L15.7184 15.7181C15.9088 15.5277 16.0158 15.2693 16.0158 15V6.875C16.0158 6.31407 15.5611 5.85938 15.0002 5.85938C14.4393 5.85938 13.9846 6.31407 13.9846 6.875Z" fill="#04F18C"/>
<path d="M26.9844 4.18359C26.4234 4.18359 25.9688 4.63829 25.9688 5.19922V8.01941C23.6048 4.31197 19.4764 2 15 2C11.5276 2 8.263 3.35225 5.80758 5.80758C3.35225 8.263 2 11.5276 2 15C2 18.4724 3.35225 21.737 5.80758 24.1924C8.263 26.6477 11.5276 28 15 28C15.0086 28 15.0169 27.9989 15.0254 27.9987C15.0339 27.9989 15.0422 28 15.0508 28C15.4168 28 15.7864 27.9846 16.1495 27.9542C16.7085 27.9074 17.1237 27.4163 17.0769 26.8574C17.03 26.2984 16.5396 25.883 15.98 25.9301C15.6731 25.9557 15.3605 25.9688 15.0508 25.9688C15.0422 25.9688 15.0339 25.9698 15.0254 25.97C15.0169 25.9698 15.0086 25.9688 15 25.9688C8.9518 25.9688 4.03125 21.0482 4.03125 15C4.03125 8.9518 8.9518 4.03125 15 4.03125C18.8979 4.03125 22.483 6.10886 24.4421 9.41406H21.6494C21.0885 9.41406 20.6338 9.86876 20.6338 10.4297C20.6338 10.9906 21.0885 11.4453 21.6494 11.4453H24.75C25.3685 11.4453 25.9472 11.2715 26.4398 10.9704C26.4715 10.9523 26.502 10.9328 26.5311 10.9119C27.4149 10.3304 28 9.33012 28 8.19531V5.19922C28 4.63829 27.5453 4.18359 26.9844 4.18359Z" fill="#04F18C"/>
</svg>
